<svg xmlns="http://www.w3.org/2000/svg" width="822" height="567"><g fill="#006E28"><path d="M535 212.2c14.5-18.5 27.5 11 27.5 11 14.5-19.5 20-1 20-1 14.5-15.5 22.5 10.5 22.5 10.5 13-15.5 24-2 24-2s12.5 6 12.5 14.5c0 0 24.5 28.5 6.5 57.5 0 0 2.5 30-15.5 25.5 0 0-11 25-39.5 9.5v.2c-.7 2.1-8.5 24.1-25.7 24.3-6.2-.101-13.7-3-22.7-10.5l-.1.1c-1 .7-9.5 6.4-17.1 6.5-6.301-.2-12.101-4.5-12.801-19.6-.199-4.5-2-9-2-9-11.5-5-4.5-29.5-4.5-29.5-10-7-6.5-17.5-6.5-17.5-10.5-15 2-20 2-20-3.199-11.1-.699-15.7 1.5-17.7 1.301-1.1 2.5-1.3 2.5-1.3-4.5-15.5 10.5-17.5 10.5-17.5-.599-21 16.901-14 16.901-14z"/><path d="M508 300.2s-7 24.5 4.5 29.5c0 0 1.8 4.5 2 9 0 0-30.5-4-31-23 0 0-15.5-12.5-30.5 0 0 0-14 25.5-28.5 4 0 0-.5 17.5-13.5 2.5 16.5-2.5 8.5-16 8.5-16 24.5-5 18-23.5 18-23.5 9.5-7 3.5-17.5 3.5-17.5 6-8-4.5-17.5-4.5-17.5 7.3-9.6 4.2-16 .4-19.6.699.6 1.399 1.1 2 1.6 4.199 4 9.899 9.6 14.8 9.7.1.1.2.1.3.2 0 0 .3-.1.7-.3 1.1-.2 2.1-.6 3.1-1.5.2-.1.4-.3.7-.4 1.9-1 8.2-4.7 3.2-10.4 0-.6-.101-1.2-.2-1.7 0 0 7.8-5.9 10-18-.1 4.6.9 10.1 4.5 16.5 0 0-4.5 16.5 4 18 0 0 .2.3.7.7 2.2 2.1 10.1 8.1 24.3 2.7-2.2 1.9-4.7 6.6-1.5 17.7 0 0-12.5 5-2 20 0-.2-3.5 10.3 6.5 17.3z"/><path d="M497 131.5c6.8-19.2 28.5-6.9 28.5-6.9 16-21 33 14 33 14 24.2-8.1 26.8 8.9 26.8 17.2-.5 1.1-.6 2.5-.3 4.3 0 0 .3-1.7.3-4.3 2.5-5.9 14.7-1.2 14.7-1.2s23.5-5 21 14.5c0 0 23-6.5 14 17 0 0 17.5 11.5-1 34 0 0 2 7.5-5 10.5 0 0-11-13.5-24 2 0 0-8-26-22.5-10.5 0 0-5.5-18.5-20 1 0 0-13-29.5-27.5-11 0 0-17.5-7-17 14 0 0-15 2-10.5 17.5 0 0-1.2.2-2.5 1.3-14.9 4.6-22.3-.7-24.3-2.7l-.7-.7c-8.5-1.5-4-18-4-18-3.6-6.3-4.7-11.9-4.5-16.5.2-1.3.4-2.7.5-4.2 1.3-6.3 4.5-9.8 4.5-9.8-7-15.5 5.5-17 5.5-17-7.5-11 6-21 6-21-7-9.5 7-10.5 7-10.5.1-5.3.8-9.6 2-13zM461.7 226.8c4.899 5.7-1.3 9.5-3.2 10.4 3.5-2.1 7-5.8 3.2-10.4zM454.7 239.2c.7-.3 1.8-.8 3.1-1.5-1 .9-2 1.4-3.1 1.5zM439 229.6c18.3 14.2 12.2 7.5 14.8 9.7-4.9-.1-10.6-5.7-14.8-9.7zM437 228c-.9-.7-1.9-1.5-2.9-2.3.9.7 1.9 1.4 2.9 2.3z"/><path d="M425.3 55.8c2-3.3 16.601-26.7 27.3-21.1 0 0 13-26.5 30-11.5 0 0 20 3 13 24 0 0 23 0 22.5 13.5 0 0 26-4 23 13.5-.1.7-.199 1.4-.3 2h-.2s-1 6-1 6.3c.101-.1.4-1.8 1.101-6.4 2.3-.5 29.3-6.2 28.3 10 0 0 26.5-7.5 29 32 0 0 13 20.5 2 36.5 0 0-12.2-4.7-14.7 1.2.101-8.3-2.6-25.3-26.8-17.2 0 0-17-35-33-14 0 0-21.8-12.3-28.5 6.9-.3-1.7-4-19.1-13.5-13.9 0 0 1-26.5-25.5-16 0 0 5-31.5-16-22 0 0 3-26.5-16.5-24l-.201.2z"/><path d="M483.5 117.7c9.5-5.2 13.2 12.2 13.5 13.9-1.2 3.3-1.9 7.6-2 13.1 0 0-14 1-7 10.5 0 0-13.5 10-6 21 0 0-12.5 1.5-5.5 17 0 0-3.3 3.6-4.5 9.8-.3 1.3-.4 2.7-.5 4.2-2.1 12.1-10 18-10 18 .1.5.2 1.1.2 1.7 3.8 4.6.2 8.3-3.2 10.4-.3.1-.5.2-.5.2l-.2.2c-1.2.7-2.399 1.2-3.1 1.5-.3 0-.601.1-1 .1-2.601-2.1 3.5 4.5-14.8-9.7-2.2-2-3.9-3.6-4.9-3.9-1.7-1.1-3-1.6-3-1.6 8-23-5-28.5-5-28.5-9.5-28-39-13-39-13-13.5-26-23.5-1.5-23.5-1.5-21-20-34-2.5-34-2.5s-3.5-21 10-17c0 0-6.5-24 7-24.5 0 0-5-24 12.5-25.5 0 0-13.5-23 14.5-18.5 0 0-6-27.5 21-19 0 0 7.5-28 30.5-18 0 0 .1-.1.2-.4l.3-.1c19.5-2.5 16.5 24 16.5 24 21-9.5 16 22 16 22 26.5-10.4 25.5 16.1 25.5 16.1z"/><path d="M363.5 181.2s10-24.5 23.5 1.5c0 0 29.5-15 39 13 0 0 13 5.5 5 28.5 0 0 1.3.5 3 1.6 1 .8 2 1.6 2.9 2.3 3.8 3.7 6.8 10-.4 19.6 0 0 10.5 9.5 4.5 17.5 0 0 6 10.5-3.5 17.5 0 0 6.5 18.5-18 23.5 0 0 8 13.5-8.5 16 .2.6 6.3 19.8-7.5 5 .2.7 6.8 21.3-6 9 0 0 9.5 21.5-5 7 0 0 3 24-8 10 0 0 2 23.5-16.5 6 0 0-22.5 22.5-25.5-4 0 0-11.5 20.5-18-10 0 0-19 14-18-1.5 0 0-29.5 24-23.5-9 0 0-20.5 1-15.5-19 0 0-8-24 5.5-30.5 0 0-18-12 5-21.5 0 0-23-11.5-6-32 0 0-22-28 13-39.5 0 0 9.5-39.5 44.5-13.5 0 0 13-17.5 34 2.5z"/></g><g fill="none" stroke="#000" stroke-width=".5"><path d="M629 230.7s12.5 6 12.5 14.5c0 0 24.5 28.5 6.5 57.5 0 0 2.5 30-15.5 25.5 0 0-11 25-39.5 9.5v.2c-.7 2.1-8.5 24.1-25.7 24.3-6.2-.101-13.7-3-22.7-10.5l-.1.1c-1 .7-9.5 6.4-17.1 6.5-6.301-.2-12.101-4.5-12.801-19.6M471.5 207.2c.2-1.3.4-2.7.5-4.2M600 154.7s23.5-5 21 14.5c0 0 23-6.5 14 17 0 0 17.5 11.5-1 34 0 0 2 7.5-5 10.5 0 0-11-13.5-24 2 0 0-8-26-22.5-10.5 0 0-5.5-18.5-20 1 0 0-13-29.5-27.5-11 0 0-17.5-7-17 14 0 0-15 2-10.5 17.5 0 0-1.2.2-2.5 1.3-14.9 4.6-22.3-.7-24.3-2.7M585.3 155.9c-.5 1.1-.6 2.5-.3 4.3 0 0 .3-1.8.3-4.3zM425.3 55.8c2-3.3 16.601-26.7 27.3-21.1 0 0 13-26.5 30-11.5 0 0 20 3 13 24 0 0 23 0 22.5 13.5 0 0 26-4 23 13.5-.1.7-.199 1.4-.3 2"/><path d="M540.7 76.1c2.3-.5 29.3-6.2 28.3 10 0 0 26.5-7.5 29 32 0 0 13 20.5 2 36.5 0 0-12.2-4.7-14.7 1.2.101-8.3-2.6-25.3-26.8-17.2 0 0-17-35-33-14 0 0-21.8-12.3-28.5 6.9"/><path d="M539.6 82.5c.101-.1.4-1.8 1.101-6.4h-.2s-.901 6.1-.901 6.4zM471.5 207.2c-.1 4.6.9 10.1 4.5 16.5 0 0-4.5 16.5 4 18 0 0 .2.3.7.7 2.2 2.1 10.1 8.1 24.3 2.7-2.2 1.9-4.7 6.6-1.5 17.7 0 0-12.5 5-2 20 0 0-3.5 10.5 6.5 17.5 0 0-7 24.5 4.5 29.5 0 0 1.8 4.5 2 9 0 0-30.5-4-31-23 0 0-15.5-12.5-30.5 0 0 0-14 25.5-28.5 4 0 0-.5 17.5-13.5 2.5M457.8 237.7c.2-.1.4-.3.7-.4"/><path d="M453.7 239.3c.1.1.2.1.3.2 0 0 .3-.1.7-.3M437 228c.7.6 1.4 1.1 2 1.6"/><path d="M329.5 178.7s-3.5-21 10-17c0 0-6.5-24 7-24.5 0 0-5-24 12.5-25.5 0 0-13.5-23 14.5-18.5 0 0-6-27.5 21-19 0 0 7.5-28 30.5-18 0 0 .1-.1.2-.4l.3-.1c19.5-2.5 16.5 24 16.5 24 21-9.5 16 22 16 22 26.5-10.5 25.5 16 25.5 16 9.5-5.2 13.2 12.2 13.5 13.9-1.2 3.3-1.9 7.6-2 13.1 0 0-14 1-7 10.5 0 0-13.5 10-6 21 0 0-12.5 1.5-5.5 17 0 0-3.3 3.6-4.5 9.8-.3 1.3-.4 2.7-.5 4.2-2.1 12.1-10 18-10 18 .1.5.2 1.1.2 1.7 4.899 5.7-1.3 9.5-3.2 10.4-.3.1-.5.2-.5.2l-.2.2c-1 .9-2 1.4-3.1 1.5-.3 0-.601.1-1 .1-4.9-.1-10.601-5.7-14.8-9.7-2.2-2-3.9-3.6-4.9-3.9"/><path d="M411 322.2c.2.6 6.3 19.8-7.5 5 .2.7 6.8 21.3-6 9 0 0 9.5 21.5-5 7 0 0 3 24-8 10 0 0 2 23.5-16.5 6 0 0-22.5 22.5-25.5-4 0 0-11.5 20.5-18-10 0 0-19 14-18-1.5 0 0-29.5 24-23.5-9 0 0-20.5 1-15.5-19 0 0-8-24 5.5-30.5 0 0-18-12 5-21.5 0 0-23-11.5-6-32 0 0-22-28 13-39.5 0 0 9.5-39.5 44.5-13.5 0 0 13-17.5 34 2.5 0 0 10-24.5 23.5 1.5 0 0 29.5-15 39 13 0 0 13 5.5 5 28.5 0 0 1.3.5 3 1.6.9.6 1.9 1.3 2.9 2.3 3.8 3.7 6.8 10-.4 19.6 0 0 10.5 9.5 4.5 17.5 0 0 6 10.5-3.5 17.5 0 0 6.5 18.5-18 23.5 0 0 8 13.5-8.5 16z"/></g><g><path fill="#824D26" d="M524 262.5c.3.7 13.9 28 7 29.5 0 0-11.5-30-16-34 0 0-23.5-16-38-4.5 0 0-1.5 48.5 5.5 52 0 0 10.5-4.5 14-9.5 0 0 5.5-5.5 9 3.5 0 0-21.5 10.5-23.5 20.5l-2 10s-8.5 138-4 162c0 0 0 8 4 18.5 4.7 12.3-35 14-36 5-.5-4.5.5-11 5-24.5 0 0 11-150 7-170 0 0-2-18.5-19-23.5 0 0-1-3 2-7 0 0 6 4.5 12 7.5 0 0 10 8.5 10.5-1.5 0 0 9-52-12.5-58.5 0 0-42.5-12-62.5 15 0 0-10.5 18-14 17s-2.5-.5 1-5c0 0 5.5-12.5 6.5-15.5s-1-2-1-2-1-3.5-6.5-1.5c0 0-19.5-3-20.5-6 0 0-4-2 .5-2 0 0 19.5 2.5 28.5 0 0 0-15-8-17-11 0 0 2-1.5 4-.5 0 0 17.5 11 26 6 0 0 48-14.5 65.5 3.5 0 0 2-4.5 2-10 0 0-9.5-38-32-62 0 0-11-17-21.5-16 0 0-1-4.5 3.5-4 0 0 16 1.5 16.5 9 0 0 4-12 1-18 0 0 4-5.5 6.5.5 0 0 1.5 10.5.5 20 0 0 25 38 26 43 0 0-2.5 11.5 22 1 0 0 24.5-11 35-20.5 0 0 2 1.5 1.5 6 0 0-20.5 15.5-24.5 16 0 0 27 5 27 11.5 0 0-4 7-6.5 3.5 0 0-13-8.5-19.5-5.5 0 0-17-7.5-19.5 7.5 0 0-6 15.5 0 24 0 0 31-1.5 45.5 14 0 0 17.2-8.8 19-8 .9.4 0 3.5-12.8 10.9-.7.4 1.399.7 2.2 1 11.199 5.3 29.399 14.2 27.699 15.6 0 0-4.399 4.2-6.5 1-1.099-1.5-26.499-12-28.599-14z"/><g fill="none" stroke="#000" stroke-width="2"><path d="M524 262.5c.3.7 13.9 28 7 29.5 0 0-11.5-30-16-34 0 0-23.5-16-38-4.5 0 0-1.5 48.5 5.5 52 0 0 10.5-4.5 14-9.5 0 0 5.5-5.5 9 3.5 0 0-21.5 10.5-23.5 20.5l-2 10s-8.5 138-4 162c0 0 0 8 4 18.5 4.7 12.3-35 14-36 5-.5-4.5.5-11 5-24.5 0 0 11-150 7-170 0 0-2-18.5-19-23.5 0 0-1-3 2-7 0 0 6 4.5 12 7.5 0 0 10 8.5 10.5-1.5 0 0 9-52-12.5-58.5 0 0-42.5-12-62.5 15 0 0-10.5 18-14 17s-2.5-.5 1-5c0 0 5.5-12.5 6.5-15.5s-1-2-1-2-1-3.5-6.5-1.5c0 0-19.5-3-20.5-6 0 0-4-2 .5-2 0 0 19.5 2.5 28.5 0 0 0-15-8-17-11 0 0 2-1.5 4-.5 0 0 17.5 11 26 6 0 0 48-14.5 65.5 3.5 0 0 2-4.5 2-10 0 0-9.5-38-32-62 0 0-11-17-21.5-16 0 0-1-4.5 3.5-4 0 0 16 1.5 16.5 9 0 0 4-12 1-18 0 0 4-5.5 6.5.5 0 0 1.5 10.5.5 20 0 0 25 38 26 43 0 0-2.5 11.5 22 1 0 0 24.5-11 35-20.5 0 0 2 1.5 1.5 6 0 0-20.5 15.5-24.5 16 0 0 27 5 27 11.5 0 0-4 7-6.5 3.5 0 0-13-8.5-19.5-5.5 0 0-17-7.5-19.5 7.5 0 0-6 15.5 0 24 0 0 31-1.5 45.5 14 0 0 17.2-8.8 19-8 .9.4 0 3.5-12.8 10.9-.7.4 1.399.7 2.2 1 11.199 5.3 29.399 14.2 27.699 15.6 0 0-4.399 4.2-6.5 1-1.099-1.5-26.499-12-28.599-14z"/></g></g></svg>