<svg style="display: none" xmlns="http://www.w3.org/2000/svg"><defs><linearGradient id="logo-SVGID_1_" gradientUnits="userSpaceOnUse" x1="489.0605" y1="258.8882" x2="646.2646" y2="258.8882" gradientTransform="matrix(1 0 0 -1 8.3398 543.04)"> <stop offset="0" style="stop-color:#006E28"/> <stop offset="0.467" style="stop-color:#009733"/> <stop offset="0.4888" style="stop-color:#009733"/> <stop offset="1" style="stop-color:#59A760"/> </linearGradient><linearGradient id="logo-SVGID_2_" gradientUnits="userSpaceOnUse" x1="402.6602" y1="270.04" x2="506.1602" y2="270.04" gradientTransform="matrix(1 0 0 -1 8.3398 543.04)"> <stop offset="0" style="stop-color:#59A760"/> <stop offset="0" style="stop-color:#009733"/> <stop offset="0" style="stop-color:#006E28"/> </linearGradient><linearGradient id="logo-SVGID_3_" gradientUnits="userSpaceOnUse" x1="463.1377" y1="360.7314" x2="634.1494" y2="360.7314" gradientTransform="matrix(1 0 0 -1 8.3398 543.04)"> <stop offset="0" style="stop-color:#006E28"/> <stop offset="0.467" style="stop-color:#009733"/> <stop offset="0.4888" style="stop-color:#009733"/> <stop offset="1" style="stop-color:#59A760"/> </linearGradient><linearGradient id="logo-SVGID_4_" gradientUnits="userSpaceOnUse" x1="320.792" y1="311.04" x2="488.6806" y2="311.04" gradientTransform="matrix(1 0 0 -1 8.3398 543.04)"> <stop offset="0" style="stop-color:#59A760"/> <stop offset="0.4888" style="stop-color:#009733"/> <stop offset="1" style="stop-color:#006E28"/> </linearGradient><linearGradient id="logo-SVGID_5_" gradientUnits="userSpaceOnUse" x1="320.792" y1="304.5898" x2="488.6807" y2="304.5898" gradientTransform="matrix(1 0 0 -1 8.3398 543.04)"> <stop offset="0" style="stop-color:#59A760"/> <stop offset="0.4888" style="stop-color:#009733"/> <stop offset="1" style="stop-color:#006E28"/> </linearGradient><linearGradient id="logo-SVGID_6_" gradientUnits="userSpaceOnUse" x1="320.792" y1="308.5898" x2="488.681" y2="308.5898" gradientTransform="matrix(1 0 0 -1 8.3398 543.04)"> <stop offset="0" style="stop-color:#59A760"/> <stop offset="0.4888" style="stop-color:#009733"/> <stop offset="1" style="stop-color:#006E28"/> </linearGradient><linearGradient id="logo-SVGID_7_" gradientUnits="userSpaceOnUse" x1="256.8467" y1="316.1895" x2="434.5693" y2="316.1895" gradientTransform="matrix(1 0 0 -1 8.3398 543.04)"> <stop offset="0" style="stop-color:#59A760"/> <stop offset="0.4888" style="stop-color:#009733"/> <stop offset="1" style="stop-color:#006E28"/> </linearGradient><linearGradient id="logo-SVGID_9_" gradientUnits="userSpaceOnUse" x1="320.752" y1="396.4189" x2="488.6602" y2="396.4189" gradientTransform="matrix(1 0 0 -1 8.3398 543.04)"> <stop offset="0" style="stop-color:#59A760"/> <stop offset="0.4888" style="stop-color:#009733"/> <stop offset="1" style="stop-color:#006E28"/> </linearGradient><linearGradient id="logo-SVGID_10_" gradientUnits="userSpaceOnUse" x1="256.8066" y1="274.0635" x2="434.5293" y2="274.0635" gradientTransform="matrix(1 0 0 -1 8.3398 543.04)"> <stop offset="0" style="stop-color:#59A760"/> <stop offset="0.4888" style="stop-color:#009733"/> <stop offset="1" style="stop-color:#006E28"/> </linearGradient><linearGradient id="logo-SVGID_11_" gradientUnits="userSpaceOnUse" x1="342.022" y1="216.0986" x2="550.8711" y2="216.0986" gradientTransform="matrix(1 0 0 -1 8.3398 543.04)"> <stop offset="0.1868" style="stop-color:#864F25"/> <stop offset="0.2402" style="stop-color:#6D421F"/> <stop offset="0.3048" style="stop-color:#55361A"/> <stop offset="0.3742" style="stop-color:#452E16"/> <stop offset="0.451" style="stop-color:#3B2914"/> <stop offset="0.5495" style="stop-color:#382713"/> <stop offset="0.6043" style="stop-color:#3E2A15"/> <stop offset="0.6783" style="stop-color:#4F3319"/> <stop offset="0.763" style="stop-color:#6B4120"/> <stop offset="0.8187" style="stop-color:#824D26"/> </linearGradient><radialGradient id="logo-SVGID_8_" cx="506.5195" cy="455.8398" r="79.7706" gradientTransform="matrix(1 0 0 -1 8.3398 543.04)" gradientUnits="userSpaceOnUse"> <stop offset="0.1264" style="stop-color:#009733"/> <stop offset="1" style="stop-color:#59A760"/> <stop offset="1" style="stop-color:#006E28"/> </radialGradient></defs><symbol viewBox="0 0 50 26.003" id="icon-arrow-left"><title>icon-arrow-left</title> <polygon points="50,11.002 7.659,11.002 15.833,2.828 13.005,0 0,12.998 0.003,13.001 0,13.005 13.005,26.003 15.833,23.175 
	7.661,15.002 50,15.002 "/> </symbol><symbol viewBox="0 0 50 26.003" id="icon-arrow-right"><title>icon-arrow-right</title> <polygon points="0,11.002 42.341,11.002 34.166,2.828 36.995,0 50,12.998 49.996,13.001 50,13.005 36.995,26.003 34.166,23.175 
	42.339,15.002 0,15.002 "/> </symbol><symbol viewBox="0 0 822 567" id="logo"><title>logo</title> <rect display="none" fill="#FFFFFF" width="822" height="567"/> <g id="logo-www.ABC-color.com"> <g>  <path fill="#006E28" d="M535,212.2c14.5-18.5,27.5,11,27.5,11c14.5-19.5,20-1,20-1c14.5-15.5,22.5,10.5,22.5,10.5
			c13-15.5,24-2,24-2s12.5,6,12.5,14.5c0,0,24.5,28.5,6.5,57.5c0,0,2.5,30-15.5,25.5c0,0-11,25-39.5,9.5c0,0,0,0,0,0.2
			c-0.7,2.1-8.5,24.1-25.7,24.3c-6.2-0.101-13.7-3-22.7-10.5c0,0,0,0-0.1,0.1c-1,0.7-9.5,6.4-17.1,6.5
			c-6.301-0.2-12.101-4.5-12.801-19.6c-0.199-4.5-2-9-2-9c-11.5-5-4.5-29.5-4.5-29.5c-10-7-6.5-17.5-6.5-17.5c-10.5-15,2-20,2-20
			c-3.199-11.1-0.699-15.7,1.5-17.7c1.301-1.1,2.5-1.3,2.5-1.3c-4.5-15.5,10.5-17.5,10.5-17.5C517.5,205.2,535,212.2,535,212.2z"/>  <path fill="#006E28" d="M508,300.2c0,0-7,24.5,4.5,29.5c0,0,1.8,4.5,2,9c0,0-30.5-4-31-23c0,0-15.5-12.5-30.5,0
			c0,0-14,25.5-28.5,4c0,0-0.5,17.5-13.5,2.5l0,0c16.5-2.5,8.5-16,8.5-16c24.5-5,18-23.5,18-23.5c9.5-7,3.5-17.5,3.5-17.5
			c6-8-4.5-17.5-4.5-17.5c7.3-9.6,4.2-16,0.4-19.6c0.699,0.6,1.399,1.1,2,1.6c4.199,4,9.899,9.6,14.8,9.7c0.1,0.1,0.2,0.1,0.3,0.2
			c0,0,0.3-0.1,0.7-0.3c1.1-0.2,2.1-0.6,3.1-1.5l0,0c0.2-0.1,0.4-0.3,0.7-0.4l0,0c1.9-1,8.2-4.7,3.2-10.4c0-0.6-0.101-1.2-0.2-1.7
			c0,0,7.8-5.9,10-18c-0.1,4.6,0.9,10.1,4.5,16.5c0,0-4.5,16.5,4,18c0,0,0.2,0.3,0.7,0.7c2.2,2.1,10.1,8.1,24.3,2.7
			c-2.2,1.9-4.7,6.6-1.5,17.7c0,0-12.5,5-2,20C501.5,282.7,498,293.2,508,300.2z"/>  <path fill="#006E28" d="M497,131.5c6.8-19.2,28.5-6.9,28.5-6.9c16-21,33,14,33,14c24.2-8.1,26.8,8.9,26.8,17.2
			c-0.5,1.1-0.6,2.5-0.3,4.3c0,0,0.3-1.7,0.3-4.3c2.5-5.9,14.7-1.2,14.7-1.2s23.5-5,21,14.5c0,0,23-6.5,14,17c0,0,17.5,11.5-1,34
			c0,0,2,7.5-5,10.5c0,0-11-13.5-24,2c0,0-8-26-22.5-10.5c0,0-5.5-18.5-20,1c0,0-13-29.5-27.5-11c0,0-17.5-7-17,14
			c0,0-15,2-10.5,17.5c0,0-1.2,0.2-2.5,1.3c-14.9,4.6-22.3-0.7-24.3-2.7c-0.4-0.4-0.7-0.7-0.7-0.7c-8.5-1.5-4-18-4-18
			c-3.6-6.3-4.7-11.9-4.5-16.5c0.2-1.3,0.4-2.7,0.5-4.2c1.3-6.3,4.5-9.8,4.5-9.8c-7-15.5,5.5-17,5.5-17c-7.5-11,6-21,6-21
			c-7-9.5,7-10.5,7-10.5C495.1,139.2,495.8,134.9,497,131.5z"/>  <path fill="#006E28" d="M461.7,226.8c4.899,5.7-1.3,9.5-3.2,10.4C462,235.1,465.5,231.4,461.7,226.8z"/>  <path fill="#006E28" d="M454.7,239.2c0.7-0.3,1.8-0.8,3.1-1.5C456.8,238.6,455.8,239.1,454.7,239.2z"/>  <path fill="#006E28" d="M439,229.6c18.3,14.2,12.2,7.5,14.8,9.7C448.9,239.2,443.2,233.6,439,229.6z"/>  <path fill="#006E28" d="M437,228c-0.9-0.7-1.9-1.5-2.9-2.3C435,226.4,436,227.1,437,228z"/>  <path fill="#006E28" d="M425.3,55.8c2-3.3,16.601-26.7,27.3-21.1c0,0,13-26.5,30-11.5c0,0,20,3,13,24c0,0,23,0,22.5,13.5
			c0,0,26-4,23,13.5c-0.1,0.7-0.199,1.4-0.3,2c-0.1,0-0.2,0-0.2,0s-1,6-1,6.3c0.101-0.1,0.4-1.8,1.101-6.4c2.3-0.5,29.3-6.2,28.3,10
			c0,0,26.5-7.5,29,32c0,0,13,20.5,2,36.5c0,0-12.2-4.7-14.7,1.2c0.101-8.3-2.6-25.3-26.8-17.2c0,0-17-35-33-14
			c0,0-21.8-12.3-28.5,6.9c-0.3-1.7-4-19.1-13.5-13.9c0,0,1-26.5-25.5-16c0,0,5-31.5-16-22c0,0,3-26.5-16.5-24L425.3,55.8z"/>  <path fill="#006E28" d="M483.5,117.7c9.5-5.2,13.2,12.2,13.5,13.9c-1.2,3.3-1.9,7.6-2,13.1c0,0-14,1-7,10.5
			c0,0-13.5,10-6,21c0,0-12.5,1.5-5.5,17c0,0-3.3,3.6-4.5,9.8c-0.3,1.3-0.4,2.7-0.5,4.2c-2.1,12.1-10,18-10,18
			c0.1,0.5,0.2,1.1,0.2,1.7c3.8,4.6,0.2,8.3-3.2,10.4l0,0c-0.3,0.1-0.5,0.2-0.5,0.2c-0.1,0.1-0.1,0.1-0.2,0.2l0,0
			c-1.2,0.7-2.399,1.2-3.1,1.5c-0.3,0-0.601,0.1-1,0.1c-2.601-2.1,3.5,4.5-14.8-9.7c-2.2-2-3.9-3.6-4.9-3.9c-1.7-1.1-3-1.6-3-1.6
			c8-23-5-28.5-5-28.5c-9.5-28-39-13-39-13c-13.5-26-23.5-1.5-23.5-1.5c-21-20-34-2.5-34-2.5s-3.5-21,10-17c0,0-6.5-24,7-24.5
			c0,0-5-24,12.5-25.5c0,0-13.5-23,14.5-18.5c0,0-6-27.5,21-19c0,0,7.5-28,30.5-18c0,0,0.1-0.1,0.2-0.4l0.3-0.1
			c19.5-2.5,16.5,24,16.5,24c21-9.5,16,22,16,22C484.5,91.2,483.5,117.7,483.5,117.7z"/>  <path fill="#006E28" d="M363.5,181.2c0,0,10-24.5,23.5,1.5c0,0,29.5-15,39,13c0,0,13,5.5,5,28.5c0,0,1.3,0.5,3,1.6
			c1,0.8,2,1.6,2.9,2.3l0,0c3.8,3.7,6.8,10-0.4,19.6c0,0,10.5,9.5,4.5,17.5c0,0,6,10.5-3.5,17.5c0,0,6.5,18.5-18,23.5
			c0,0,8,13.5-8.5,16l0,0c0.2,0.6,6.3,19.8-7.5,5c0.2,0.7,6.8,21.3-6,9c0,0,9.5,21.5-5,7c0,0,3,24-8,10c0,0,2,23.5-16.5,6
			c0,0-22.5,22.5-25.5-4c0,0-11.5,20.5-18-10c0,0-19,14-18-1.5c0,0-29.5,24-23.5-9c0,0-20.5,1-15.5-19c0,0-8-24,5.5-30.5
			c0,0-18-12,5-21.5c0,0-23-11.5-6-32c0,0-22-28,13-39.5c0,0,9.5-39.5,44.5-13.5C329.5,178.7,342.5,161.2,363.5,181.2z"/> </g> <g> <path fill="none" stroke="#000000" stroke-width="0.5" d="M629,230.7c0,0,12.5,6,12.5,14.5c0,0,24.5,28.5,6.5,57.5
			c0,0,2.5,30-15.5,25.5c0,0-11,25-39.5,9.5c0,0,0,0,0,0.2c-0.7,2.1-8.5,24.1-25.7,24.3c-6.2-0.101-13.7-3-22.7-10.5
			c0,0,0,0-0.1,0.1c-1,0.7-9.5,6.4-17.1,6.5c-6.301-0.2-12.101-4.5-12.801-19.6"/> <path fill="none" stroke="#000000" stroke-width="0.5" d="M471.5,207.2c0.2-1.3,0.4-2.7,0.5-4.2"/> <path fill="none" stroke="#000000" stroke-width="0.5" d="M600,154.7c0,0,23.5-5,21,14.5c0,0,23-6.5,14,17c0,0,17.5,11.5-1,34
			c0,0,2,7.5-5,10.5c0,0-11-13.5-24,2c0,0-8-26-22.5-10.5c0,0-5.5-18.5-20,1c0,0-13-29.5-27.5-11c0,0-17.5-7-17,14
			c0,0-15,2-10.5,17.5c0,0-1.2,0.2-2.5,1.3c-14.9,4.6-22.3-0.7-24.3-2.7"/> <path fill="none" stroke="#000000" stroke-width="0.5" d="M585.3,155.9c-0.5,1.1-0.6,2.5-0.3,4.3
			C585,160.2,585.3,158.4,585.3,155.9z"/> <path fill="none" stroke="#000000" stroke-width="0.5" d="M425.3,55.8c2-3.3,16.601-26.7,27.3-21.1c0,0,13-26.5,30-11.5
			c0,0,20,3,13,24c0,0,23,0,22.5,13.5c0,0,26-4,23,13.5c-0.1,0.7-0.199,1.4-0.3,2"/> <path fill="none" stroke="#000000" stroke-width="0.5" d="M540.7,76.1c2.3-0.5,29.3-6.2,28.3,10c0,0,26.5-7.5,29,32
			c0,0,13,20.5,2,36.5c0,0-12.2-4.7-14.7,1.2c0.101-8.3-2.6-25.3-26.8-17.2c0,0-17-35-33-14c0,0-21.8-12.3-28.5,6.9"/> <path fill="none" stroke="#000000" stroke-width="0.5" d="M539.6,82.5c0.101-0.1,0.4-1.8,1.101-6.4c-0.101,0-0.2,0-0.2,0
			S539.6,82.2,539.6,82.5z"/> <path fill="none" stroke="#000000" stroke-width="0.5" d="M471.5,207.2c-0.1,4.6,0.9,10.1,4.5,16.5c0,0-4.5,16.5,4,18
			c0,0,0.2,0.3,0.7,0.7c2.2,2.1,10.1,8.1,24.3,2.7c-2.2,1.9-4.7,6.6-1.5,17.7c0,0-12.5,5-2,20c0,0-3.5,10.5,6.5,17.5
			c0,0-7,24.5,4.5,29.5c0,0,1.8,4.5,2,9c0,0-30.5-4-31-23c0,0-15.5-12.5-30.5,0c0,0-14,25.5-28.5,4c0,0-0.5,17.5-13.5,2.5"/> <path fill="none" stroke="#000000" stroke-width="0.5" d="M457.8,237.7c0.2-0.1,0.4-0.3,0.7-0.4"/> <path fill="none" stroke="#000000" stroke-width="0.5" d="M453.7,239.3c0.1,0.1,0.2,0.1,0.3,0.2c0,0,0.3-0.1,0.7-0.3"/> <path fill="none" stroke="#000000" stroke-width="0.5" d="M437,228c0.7,0.6,1.4,1.1,2,1.6"/> <path fill="none" stroke="#000000" stroke-width="0.5" d="M329.5,178.7c0,0-3.5-21,10-17c0,0-6.5-24,7-24.5c0,0-5-24,12.5-25.5
			c0,0-13.5-23,14.5-18.5c0,0-6-27.5,21-19c0,0,7.5-28,30.5-18c0,0,0.1-0.1,0.2-0.4l0.3-0.1c19.5-2.5,16.5,24,16.5,24
			c21-9.5,16,22,16,22c26.5-10.5,25.5,16,25.5,16c9.5-5.2,13.2,12.2,13.5,13.9c-1.2,3.3-1.9,7.6-2,13.1c0,0-14,1-7,10.5
			c0,0-13.5,10-6,21c0,0-12.5,1.5-5.5,17c0,0-3.3,3.6-4.5,9.8c-0.3,1.3-0.4,2.7-0.5,4.2c-2.1,12.1-10,18-10,18
			c0.1,0.5,0.2,1.1,0.2,1.7c4.899,5.7-1.3,9.5-3.2,10.4l0,0c-0.3,0.1-0.5,0.2-0.5,0.2c-0.1,0.1-0.1,0.1-0.2,0.2l0,0
			c-1,0.9-2,1.4-3.1,1.5c-0.3,0-0.601,0.1-1,0.1c-4.9-0.1-10.601-5.7-14.8-9.7c-2.2-2-3.9-3.6-4.9-3.9"/> <path fill="none" stroke="#000000" stroke-width="0.5" d="M411,322.2c0.2,0.6,6.3,19.8-7.5,5c0.2,0.7,6.8,21.3-6,9
			c0,0,9.5,21.5-5,7c0,0,3,24-8,10c0,0,2,23.5-16.5,6c0,0-22.5,22.5-25.5-4c0,0-11.5,20.5-18-10c0,0-19,14-18-1.5
			c0,0-29.5,24-23.5-9c0,0-20.5,1-15.5-19c0,0-8-24,5.5-30.5c0,0-18-12,5-21.5c0,0-23-11.5-6-32c0,0-22-28,13-39.5
			c0,0,9.5-39.5,44.5-13.5c0,0,13-17.5,34,2.5c0,0,10-24.5,23.5,1.5c0,0,29.5-15,39,13c0,0,13,5.5,5,28.5c0,0,1.3,0.5,3,1.6
			c0.9,0.6,1.9,1.3,2.9,2.3l0,0c3.8,3.7,6.8,10-0.4,19.6c0,0,10.5,9.5,4.5,17.5c0,0,6,10.5-3.5,17.5c0,0,6.5,18.5-18,23.5
			C419.5,306.2,427.5,319.7,411,322.2L411,322.2z"/> </g> </g> <g id="logo-XMLID_1_"> <g>  <path fill="#824D26" d="M524,262.5c0.3,0.7,13.9,28,7,29.5c0,0-11.5-30-16-34c0,0-23.5-16-38-4.5c0,0-1.5,48.5,5.5,52
			c0,0,10.5-4.5,14-9.5c0,0,5.5-5.5,9,3.5c0,0-21.5,10.5-23.5,20.5s-2,10-2,10s-8.5,138-4,162c0,0,0,8,4,18.5c4.7,12.3-35,14-36,5
			c-0.5-4.5,0.5-11,5-24.5c0,0,11-150,7-170c0,0-2-18.5-19-23.5c0,0-1-3,2-7c0,0,6,4.5,12,7.5c0,0,10,8.5,10.5-1.5
			c0,0,9-52-12.5-58.5c0,0-42.5-12-62.5,15c0,0-10.5,18-14,17s-2.5-0.5,1-5c0,0,5.5-12.5,6.5-15.5s-1-2-1-2s-1-3.5-6.5-1.5
			c0,0-19.5-3-20.5-6c0,0-4-2,0.5-2c0,0,19.5,2.5,28.5,0c0,0-15-8-17-11c0,0,2-1.5,4-0.5c0,0,17.5,11,26,6c0,0,48-14.5,65.5,3.5
			c0,0,2-4.5,2-10c0,0-9.5-38-32-62c0,0-11-17-21.5-16c0,0-1-4.5,3.5-4c0,0,16,1.5,16.5,9c0,0,4-12,1-18c0,0,4-5.5,6.5,0.5
			c0,0,1.5,10.5,0.5,20c0,0,25,38,26,43c0,0-2.5,11.5,22,1c0,0,24.5-11,35-20.5c0,0,2,1.5,1.5,6c0,0-20.5,15.5-24.5,16
			c0,0,27,5,27,11.5c0,0-4,7-6.5,3.5c0,0-13-8.5-19.5-5.5c0,0-17-7.5-19.5,7.5c0,0-6,15.5,0,24c0,0,31-1.5,45.5,14
			c0,0,17.2-8.8,19-8c0.9,0.4,0,3.5-12.8,10.9c-0.7,0.4,1.399,0.7,2.2,1c11.199,5.3,29.399,14.2,27.699,15.6c0,0-4.399,4.2-6.5,1
			C551.5,275,526.1,264.5,524,262.5z"/> </g> <g> <line fill="none" stroke="#000000" stroke-width="2" x1="524" y1="262.5" x2="524" y2="262.5"/> <path fill="none" stroke="#000000" stroke-width="2" d="M524,262.5c0.3,0.7,13.9,28,7,29.5c0,0-11.5-30-16-34c0,0-23.5-16-38-4.5
			c0,0-1.5,48.5,5.5,52c0,0,10.5-4.5,14-9.5c0,0,5.5-5.5,9,3.5c0,0-21.5,10.5-23.5,20.5s-2,10-2,10s-8.5,138-4,162c0,0,0,8,4,18.5
			c4.7,12.3-35,14-36,5c-0.5-4.5,0.5-11,5-24.5c0,0,11-150,7-170c0,0-2-18.5-19-23.5c0,0-1-3,2-7c0,0,6,4.5,12,7.5
			c0,0,10,8.5,10.5-1.5c0,0,9-52-12.5-58.5c0,0-42.5-12-62.5,15c0,0-10.5,18-14,17s-2.5-0.5,1-5c0,0,5.5-12.5,6.5-15.5s-1-2-1-2
			s-1-3.5-6.5-1.5c0,0-19.5-3-20.5-6c0,0-4-2,0.5-2c0,0,19.5,2.5,28.5,0c0,0-15-8-17-11c0,0,2-1.5,4-0.5c0,0,17.5,11,26,6
			c0,0,48-14.5,65.5,3.5c0,0,2-4.5,2-10c0,0-9.5-38-32-62c0,0-11-17-21.5-16c0,0-1-4.5,3.5-4c0,0,16,1.5,16.5,9c0,0,4-12,1-18
			c0,0,4-5.5,6.5,0.5c0,0,1.5,10.5,0.5,20c0,0,25,38,26,43c0,0-2.5,11.5,22,1c0,0,24.5-11,35-20.5c0,0,2,1.5,1.5,6
			c0,0-20.5,15.5-24.5,16c0,0,27,5,27,11.5c0,0-4,7-6.5,3.5c0,0-13-8.5-19.5-5.5c0,0-17-7.5-19.5,7.5c0,0-6,15.5,0,24
			c0,0,31-1.5,45.5,14c0,0,17.2-8.8,19-8c0.9,0.4,0,3.5-12.8,10.9c-0.7,0.4,1.399,0.7,2.2,1c11.199,5.3,29.399,14.2,27.699,15.6
			c0,0-4.399,4.2-6.5,1C551.5,275,526.1,264.5,524,262.5z"/> </g> </g> </symbol></svg>